<svg id="svg8" xmlns="http://www.w3.org/2000/svg" viewBox="0 0 284.86 264.94"><defs><style>.cls-1{fill:#f9d304;stroke-width:5.67px;}.cls-1,.cls-2,.cls-3,.cls-4,.cls-5,.cls-6,.cls-8{stroke:#000;}.cls-1,.cls-3,.cls-6{stroke-linecap:square;stroke-dasharray:0.52 0.52;}.cls-1,.cls-2,.cls-3,.cls-4,.cls-5,.cls-6,.cls-7,.cls-8{stroke-miterlimit:11.34;}.cls-2{fill:#dcdddd;}.cls-2,.cls-3,.cls-4,.cls-5,.cls-6{stroke-width:2.13px;}.cls-3{fill:#00a1e9;}.cls-4,.cls-5,.cls-6{fill:none;}.cls-4,.cls-6{opacity:0.76;isolation:isolate;}.cls-7{fill:#fff;stroke:#fbffff;}.cls-7,.cls-8{stroke-width:1.42px;}.cls-8{fill:#2c2625;}</style></defs><g id="g952"><path id="path833" class="cls-1" d="M43,243.13,4.18,117.71c-4-12.86,1.09-26.92,12.58-34.82L123.08,9.65a38.1,38.1,0,0,1,43.66.12L269.35,83.54a30.13,30.13,0,0,1,10.83,34.93l-45.75,126.7a26.07,26.07,0,0,1-24.59,16.94L68.9,261.72a26.83,26.83,0,0,1-25.84-18.59Z" transform="translate(0.01 0)"/><g id="text880"><path id="path1843" d="M61.73,81.94a5.11,5.11,0,0,1,1.61,2.6,5.32,5.32,0,0,1-.17,3.18A9.13,9.13,0,0,1,61.08,91a8.83,8.83,0,0,1-3.79,2.51,6.12,6.12,0,0,1-2.82.17,4.64,4.64,0,0,1-2.29-1,1.55,1.55,0,0,1-.14-2.2l.07-.08a1.37,1.37,0,0,1,.94-.46,2.74,2.74,0,0,1,1.29.23,7.86,7.86,0,0,0,1.58.43,3.19,3.19,0,0,0,1.5-.18,5,5,0,0,0,2.84-3.58,2.25,2.25,0,0,0-.71-2,2,2,0,0,0-1.47-.57,3.36,3.36,0,0,0-1.61.45c-.54.29-1.23.71-2.06,1.27a17.94,17.94,0,0,1-3,1.67,5.5,5.5,0,0,1-2.66.4,4.48,4.48,0,0,1-2.57-1.24,4.42,4.42,0,0,1-1.41-2.38,5,5,0,0,1,.29-2.91,9.58,9.58,0,0,1,2-3.07,8.93,8.93,0,0,1,2.29-1.81,6,6,0,0,1,2.2-.74,4.55,4.55,0,0,1,1.87.11,3.32,3.32,0,0,1,1.35.71,1.78,1.78,0,0,1,.56,1.14,1.46,1.46,0,0,1-.4,1.19,1.42,1.42,0,0,1-.89.49,5.32,5.32,0,0,1-1.26-.18,4.84,4.84,0,0,0-2-.21,3.51,3.51,0,0,0-2,1.23,3.71,3.71,0,0,0-1.1,2.1,1.77,1.77,0,0,0,.51,1.63,1.55,1.55,0,0,0,1,.39,2.72,2.72,0,0,0,1.06-.14,5.36,5.36,0,0,0,1-.47c.32-.18.84-.5,1.55-1a27.49,27.49,0,0,1,2.56-1.39,8.47,8.47,0,0,1,2.23-.84,4.27,4.27,0,0,1,2.1.07,4.92,4.92,0,0,1,2,1.19Z" transform="translate(0.01 0)"/><path id="path1845" d="M71.29,77.54l-9.41-7.35L69.54,80a2.17,2.17,0,0,1,.58,1.51,1.54,1.54,0,0,1-.66,1.14,1.61,1.61,0,0,1-1.29.33,2.26,2.26,0,0,1-1.34-1l-8.78-11.2a1.74,1.74,0,0,1-.49-1.62,2.92,2.92,0,0,1,1.09-1.34l.91-.68a4.69,4.69,0,0,1,1.3-.75,1.3,1.3,0,0,1,1,.11,11.77,11.77,0,0,1,1.37.93l8.2,6.23-4-9.39a9.46,9.46,0,0,1-.56-1.54,1.21,1.21,0,0,1,.14-.93,4.16,4.16,0,0,1,1.09-1l.91-.68a3,3,0,0,1,1.6-.67,1.79,1.79,0,0,1,1.47.88l8.79,11.29a2.19,2.19,0,0,1,.58,1.5,1.71,1.71,0,0,1-1.89,1.49l-.11,0a2.27,2.27,0,0,1-1.33-1l-7.67-9.84L75.2,74.62c.3.7.52,1.23.63,1.59a2.21,2.21,0,0,1,.06,1.14,1.9,1.9,0,0,1-.71,1.19,2,2,0,0,1-1,.43,2,2,0,0,1-1-.14,4.44,4.44,0,0,1-.9-.51l-.9-.69Z" transform="translate(0.01 0)"/><path id="path1847" d="M81.18,55.13l2.9,5.61,3.1-9.86a7,7,0,0,1,.43-1.1,1.65,1.65,0,0,1,.76-.67A1.84,1.84,0,0,1,89.73,49a1.48,1.48,0,0,1,1,.77,2.13,2.13,0,0,1,0,1.78l-2.15,5.73,8,4.21a9.35,9.35,0,0,1,1.35.82,2.76,2.76,0,0,1,.76.87,1.34,1.34,0,0,1,0,1.14,1.76,1.76,0,0,1-1,1,2.2,2.2,0,0,1-1.28.27,2.85,2.85,0,0,1-1.13-.41l-1-.61-7-4-1.4,3.88,1.71,3.31A2.38,2.38,0,0,1,88,69.5a1.87,1.87,0,0,1-1.77,1.23,1.75,1.75,0,0,1-.91-.29,2.5,2.5,0,0,1-.56-.61c-.16-.26-.37-.65-.63-1.16l-6.15-11.9a2.44,2.44,0,0,1-.33-1.69,1.72,1.72,0,0,1,1-1.09,1.77,1.77,0,0,1,1.46-.1A2.33,2.33,0,0,1,81.18,55.13Z" transform="translate(0.01 0)"/><path id="path1849" d="M109.24,44.2l9.46,8.64-2.52-10.37a2.26,2.26,0,0,1,.06-1.62,1.74,1.74,0,0,1,2.4-.59l0,0a2.3,2.3,0,0,1,.82,1.4l3.38,13.72q.57,2.3-1.38,2.76a2.8,2.8,0,0,1-.91.06,2.23,2.23,0,0,1-.83-.26,4,4,0,0,1-.8-.54l-.77-.68-9.26-8.56,2.52,10.22a2.22,2.22,0,0,1-.1,1.62,1.65,1.65,0,0,1-1.09.8,1.62,1.62,0,0,1-1.35-.22,2.33,2.33,0,0,1-.84-1.4L104.7,45.74a3.83,3.83,0,0,1-.14-1.39,1.94,1.94,0,0,1,.55-1,2.07,2.07,0,0,1,1.07-.61,2.26,2.26,0,0,1,.86-.05,1.89,1.89,0,0,1,.71.28,3.85,3.85,0,0,1,.71.55l.78.73Z" transform="translate(0.01 0)"/><path id="path1851" d="M138.29,40.92l-8.33.59.33,4.39,7.67-.54a1.79,1.79,0,0,1,1.29.29,1.21,1.21,0,0,1,.49.94,1.35,1.35,0,0,1-.33,1,1.85,1.85,0,0,1-1.25.47l-7.67.55.38,5.09,8.62-.62a1.89,1.89,0,0,1,1.33.31,1.44,1.44,0,0,1,.27,2l-.11.13a1.94,1.94,0,0,1-1.28.48l-10,.72a2.45,2.45,0,0,1-1.78-.4,2.33,2.33,0,0,1-.65-1.66l-1-13.45a3,3,0,0,1,.14-1.29,1.45,1.45,0,0,1,.69-.77,3,3,0,0,1,1.27-.32l9.77-.7a1.89,1.89,0,0,1,1.33.3,1.39,1.39,0,0,1,.19,2l0,0a1.94,1.94,0,0,1-1.28.48Z" transform="translate(0.01 0)"/><path id="path1853" d="M161.79,50.16l-.33,3.43a3.69,3.69,0,0,1-.25,1.08,1.67,1.67,0,0,1-.58.68,4.63,4.63,0,0,1-1,.55,14.7,14.7,0,0,1-3.31,1A13.59,13.59,0,0,1,153,57a11.2,11.2,0,0,1-3.77-1,7.89,7.89,0,0,1-4.35-5.21,11.88,11.88,0,0,1,.74-7.66,7.94,7.94,0,0,1,2.15-2.76,8.17,8.17,0,0,1,3.17-1.55,11.62,11.62,0,0,1,4.07-.27,9.89,9.89,0,0,1,3.21.79,7.32,7.32,0,0,1,2.18,1.42,5.67,5.67,0,0,1,1.18,1.68,3.19,3.19,0,0,1,.3,1.49A1.55,1.55,0,0,1,161.2,45a1.79,1.79,0,0,1-1.28.36,1.74,1.74,0,0,1-1.31-.83,16,16,0,0,0-1-1.69,3.52,3.52,0,0,0-1.2-1,5,5,0,0,0-2-.56,5.92,5.92,0,0,0-2.33.22,4.85,4.85,0,0,0-1.85,1.1,5.87,5.87,0,0,0-1.29,1.9,8.67,8.67,0,0,0-.63,2.61,7.15,7.15,0,0,0,1,5,5.19,5.19,0,0,0,4,2.08,8.61,8.61,0,0,0,2.43-.11,10.9,10.9,0,0,0,2.38-.72l.28-2.9-2.86-.27a3.06,3.06,0,0,1-1.53-.45,1.08,1.08,0,0,1-.42-1.08,1.28,1.28,0,0,1,.53-1,1.82,1.82,0,0,1,1.24-.28l4.19.4a5.18,5.18,0,0,1,1.29.26,1.39,1.39,0,0,1,.8.67,2.4,2.4,0,0,1,.2,1.42Z" transform="translate(0.01 0)"/><path id="path1855" d="M180.25,46.71l-8.07-2.17L171,48.79l7.42,2a1.75,1.75,0,0,1,1.12.69,1.22,1.22,0,0,1,.14,1,1.38,1.38,0,0,1-.66.87,1.9,1.9,0,0,1-1.33,0l-7.43-2-1.36,4.92,8.34,2.22a1.9,1.9,0,0,1,1.16.73,1.33,1.33,0,0,1,.15,1.13,1.38,1.38,0,0,1-.71.89,1.9,1.9,0,0,1-1.37,0l-9.73-2.59a2.37,2.37,0,0,1-1.55-1,2.31,2.31,0,0,1-.05-1.77l3.61-13a3,3,0,0,1,.57-1.16,1.4,1.4,0,0,1,.9-.51,3.11,3.11,0,0,1,1.32.11L181,43.83a1.84,1.84,0,0,1,1.16.72,1.29,1.29,0,0,1,.15,1.08,1.32,1.32,0,0,1-.7.88,1.88,1.88,0,0,1-1.36,0Z" transform="translate(0.01 0)"/><path id="path1857" d="M188.74,57.9l-1.18-.53-2.44,5.25A2.44,2.44,0,0,1,184,63.94a1.76,1.76,0,0,1-1.44-.06,1.66,1.66,0,0,1-1-1.07,2.46,2.46,0,0,1,.26-1.7l5.81-12.57a2.3,2.3,0,0,1,1.21-1.33,2.45,2.45,0,0,1,1.8.22l5.49,2.45a17.2,17.2,0,0,1,1.9,1,5.89,5.89,0,0,1,1.28,1,4.51,4.51,0,0,1,1,1.55,4.13,4.13,0,0,1,.26,1.81,5,5,0,0,1-.46,1.82,4.57,4.57,0,0,1-2.41,2.48,6.82,6.82,0,0,1-3.9.13,6.62,6.62,0,0,1,1.07,2.14,14.5,14.5,0,0,1,.55,2.6,13.72,13.72,0,0,1,.14,2.31,3.81,3.81,0,0,1-.17,1.3,1.29,1.29,0,0,1-.51.55,1.72,1.72,0,0,1-.8.23,2,2,0,0,1-.93-.18,1.83,1.83,0,0,1-.83-.7,2.5,2.5,0,0,1-.36-1c-.06-.35-.13-.86-.21-1.52l-.32-2.81a12.54,12.54,0,0,0-.45-2.43,3.41,3.41,0,0,0-.76-1.38,4.33,4.33,0,0,0-1.38-.9Zm5.12-6-3.12-1.36L188.66,55l3,1.35a9.44,9.44,0,0,0,2.14.71,2.79,2.79,0,0,0,1.59-.14,2.34,2.34,0,0,0,1.08-3.14,2.49,2.49,0,0,0-.42-.6,7.51,7.51,0,0,0-2.21-1.28Z" transform="translate(0.01 0)"/><path id="path1859" d="M198.6,69.26l7.5-12.08A2.45,2.45,0,0,1,207.42,56a1.74,1.74,0,0,1,1.42.21,1.68,1.68,0,0,1,.86,1.16,2.23,2.23,0,0,1-.43,1.67l-7.5,12.08a2.39,2.39,0,0,1-1.33,1.15,1.8,1.8,0,0,1-1.45-.21,1.72,1.72,0,0,1-.81-1.15,2.34,2.34,0,0,1,.44-1.68Z" transform="translate(0.01 0)"/><path id="path1861" d="M214.54,80.66l7.4-8.45c-2.67-.14-4.28-.45-4.83-.91a1.29,1.29,0,0,1-.45-.91,1.41,1.41,0,0,1,.33-1,1.14,1.14,0,0,1,.92-.44,9.3,9.3,0,0,1,1.57.32,10.28,10.28,0,0,0,2.81.42,10,10,0,0,0,2.37-.28,14.19,14.19,0,0,1,1.47-.31,1.09,1.09,0,0,1,.75.34,1.21,1.21,0,0,1,.47,1.06,2.08,2.08,0,0,1-.61,1.3l-9.3,10.65c-1.09,1.24-2.07,1.5-2.93.78a1.57,1.57,0,0,1-.6-1.17,2.16,2.16,0,0,1,.63-1.42Z" transform="translate(0.01 0)"/><path id="path1863" d="M235.51,91.45a20.52,20.52,0,0,1-2.8,2.11,8.25,8.25,0,0,1-2.61,1.06,6.27,6.27,0,0,1-3.16-.13,5.67,5.67,0,0,1-2.59-1.68,5.56,5.56,0,0,1-1.46-3.2,6.4,6.4,0,0,1,.73-3.59,10.45,10.45,0,0,1,1.33-1.9,17.22,17.22,0,0,1,1.92-1.9,25.4,25.4,0,0,1,2.67-2.07,11.77,11.77,0,0,1,2.36-1.23,5.92,5.92,0,0,1,3.46-.21,5.84,5.84,0,0,1,2.94,1.85,5.91,5.91,0,0,1,1.23,2,4.87,4.87,0,0,1,.3,2.14,6.68,6.68,0,0,1-.59,2.28,14.15,14.15,0,0,1-3.73,4.48Zm-2.08-2.67A19.66,19.66,0,0,0,236,86.15a4.46,4.46,0,0,0,1-2.1,2.25,2.25,0,0,0-.63-1.81,2.37,2.37,0,0,0-2.77-.6,15.13,15.13,0,0,0-4.25,2.86,21.52,21.52,0,0,0-2.7,2.7,4.77,4.77,0,0,0-1.09,2.16,2.11,2.11,0,0,0,.6,1.78,2.2,2.2,0,0,0,1.79.8,5.09,5.09,0,0,0,2.32-.81,25.16,25.16,0,0,0,3.09-2.35Z" transform="translate(0.01 0)"/></g><path id="path891" d="M87,244.54l-2.36-8.87v9.61a1.75,1.75,0,0,1-.38,1.2,1.46,1.46,0,0,1-2,0,1.71,1.71,0,0,1-.38-1.21v-11a1.33,1.33,0,0,1,.51-1.23,2.54,2.54,0,0,1,1.35-.32h.93a3.79,3.79,0,0,1,1.21.14,1,1,0,0,1,.56.51,7.5,7.5,0,0,1,.41,1.21L89,242.21l2.15-7.62a7.5,7.5,0,0,1,.41-1.21,1,1,0,0,1,.55-.51,3.88,3.88,0,0,1,1.22-.14h.89a2.58,2.58,0,0,1,1.36.32,1.33,1.33,0,0,1,.51,1.23v11a1.68,1.68,0,0,1-.39,1.2,1.44,1.44,0,0,1-2,0,1.75,1.75,0,0,1-.38-1.2v-9.61L91,244.54c-.16.58-.29,1-.39,1.27a1.69,1.69,0,0,1-.53.73,1.55,1.55,0,0,1-1.09.34,1.69,1.69,0,0,1-.88-.22,1.53,1.53,0,0,1-.56-.54,3.2,3.2,0,0,1-.33-.73c-.07-.28-.15-.56-.23-.85Z" transform="translate(0.01 0)"/><path id="path893" d="M109.18,245.07l-.7-1.74h-6l-.7,1.78a6.7,6.7,0,0,1-.7,1.42,1.18,1.18,0,0,1-1,.36,1.48,1.48,0,0,1-1-.39,1.23,1.23,0,0,1-.43-.89,1.65,1.65,0,0,1,.1-.58c.07-.21.18-.49.33-.85l3.78-9c.1-.26.23-.57.38-.93a4.39,4.39,0,0,1,.48-.91,2.07,2.07,0,0,1,.67-.58,2.29,2.29,0,0,1,1-.23,2.16,2.16,0,0,1,1,.23,1.76,1.76,0,0,1,.67.57,3.17,3.17,0,0,1,.43.76c.12.26.27.62.46,1.07l3.85,9a4.41,4.41,0,0,1,.45,1.5,1.23,1.23,0,0,1-.43.89,1.49,1.49,0,0,1-1,.4,1.25,1.25,0,0,1-.6-.13,1.07,1.07,0,0,1-.42-.31,3.11,3.11,0,0,1-.38-.63l-.33-.75Zm-5.91-3.86h4.4l-2.22-5.75Z" transform="translate(0.01 0)"/><path id="path895" d="M118.23,234.2v4.88l5.86-5.77a6,6,0,0,1,.71-.62,1.67,1.67,0,0,1,1.83.16,1.12,1.12,0,0,1,.41.87,1.69,1.69,0,0,1-.68,1.22l-3.63,3.25,4.19,5.66a7.2,7.2,0,0,1,.66,1,1.83,1.83,0,0,1,.22.86,1,1,0,0,1-.39.8,1.53,1.53,0,0,1-1,.35,1.93,1.93,0,0,1-1-.25,2.38,2.38,0,0,1-.67-.67l-.48-.76-3.53-5.13-2.44,2.21v2.88a1.82,1.82,0,0,1-.43,1.3,1.5,1.5,0,0,1-1.08.42,1.6,1.6,0,0,1-.74-.19,1.42,1.42,0,0,1-.54-.52,1.64,1.64,0,0,1-.17-.61V234.2a1.8,1.8,0,0,1,.39-1.28,1.57,1.57,0,0,1,2.17,0,1.71,1.71,0,0,1,.43,1.28Z" transform="translate(0.01 0)"/><path id="path897" d="M140.53,245.07l-.71-1.74h-6l-.71,1.78a6.25,6.25,0,0,1-.7,1.42,1.18,1.18,0,0,1-1,.36,1.48,1.48,0,0,1-1-.39,1.18,1.18,0,0,1-.44-.89,1.66,1.66,0,0,1,.11-.58,6.78,6.78,0,0,1,.33-.85l3.77-9,.38-.93a5.27,5.27,0,0,1,.48-.91,2,2,0,0,1,.68-.58,2.16,2.16,0,0,1,1-.23,2,2,0,0,1,1,.23,1.68,1.68,0,0,1,.67.57,3.59,3.59,0,0,1,.44.76c.12.26.27.62.45,1.07l3.85,9a4.41,4.41,0,0,1,.45,1.5,1.23,1.23,0,0,1-.43.89,1.44,1.44,0,0,1-1,.4,1.29,1.29,0,0,1-.61-.13,1.07,1.07,0,0,1-.42-.31,3.35,3.35,0,0,1-.37-.63q-.19-.42-.33-.75Zm-5.92-3.86H139l-2.23-5.75Z" transform="translate(0.01 0)"/><path id="path899" d="M157.74,242.47a3.83,3.83,0,0,1-.7,2.27,4.44,4.44,0,0,1-2,1.58,7.89,7.89,0,0,1-3.15.57,7.37,7.37,0,0,1-3.6-.78,4.69,4.69,0,0,1-1.64-1.49,3.35,3.35,0,0,1-.62-1.83,1.14,1.14,0,0,1,.37-.87,1.33,1.33,0,0,1,1-.37,1.14,1.14,0,0,1,.79.28,2.29,2.29,0,0,1,.56.85,6,6,0,0,0,.61,1.11,2.45,2.45,0,0,0,.92.74,3.64,3.64,0,0,0,1.56.29,3.71,3.71,0,0,0,2.15-.58,1.74,1.74,0,0,0,.84-1.46,1.51,1.51,0,0,0-.45-1.13,2.92,2.92,0,0,0-1.16-.66q-.71-.23-1.89-.48a15.54,15.54,0,0,1-2.67-.82,4.38,4.38,0,0,1-1.7-1.28,3.25,3.25,0,0,1-.62-2,3.35,3.35,0,0,1,.66-2,4.17,4.17,0,0,1,1.92-1.36,8.08,8.08,0,0,1,3-.49,7.76,7.76,0,0,1,2.35.32,4.89,4.89,0,0,1,1.65.85,3.51,3.51,0,0,1,1,1.1,2.47,2.47,0,0,1,.3,1.13,1.25,1.25,0,0,1-.38.91,1.23,1.23,0,0,1-.93.4,1.13,1.13,0,0,1-.79-.24,3.69,3.69,0,0,1-.57-.79,3.62,3.62,0,0,0-1-1.23,2.89,2.89,0,0,0-1.81-.45,3.24,3.24,0,0,0-1.87.49,1.37,1.37,0,0,0-.7,1.15,1.1,1.1,0,0,0,.24.72,2,2,0,0,0,.66.52,4.28,4.28,0,0,0,.86.34c.28.09.76.21,1.42.36.84.19,1.59.39,2.26.61a6.77,6.77,0,0,1,1.72.81,3.36,3.36,0,0,1,1.1,1.21,3.5,3.5,0,0,1,.41,1.77Z" transform="translate(0.01 0)"/><path id="path901" d="M172.1,242.47a3.92,3.92,0,0,1-.69,2.27,4.49,4.49,0,0,1-2,1.58,7.88,7.88,0,0,1-3.14.57,7.34,7.34,0,0,1-3.6-.78,4.69,4.69,0,0,1-1.64-1.49,3.26,3.26,0,0,1-.63-1.83,1.19,1.19,0,0,1,.37-.87,1.33,1.33,0,0,1,1-.37,1.14,1.14,0,0,1,.79.28,2.32,2.32,0,0,1,.57.85,6,6,0,0,0,.6,1.11,2.41,2.41,0,0,0,.93.74,3.61,3.61,0,0,0,1.56.29,3.71,3.71,0,0,0,2.15-.58,1.73,1.73,0,0,0,.83-1.46,1.51,1.51,0,0,0-.45-1.13,2.81,2.81,0,0,0-1.16-.66q-.71-.23-1.89-.48a15.44,15.44,0,0,1-2.66-.82,4.38,4.38,0,0,1-1.7-1.28,3.2,3.2,0,0,1-.63-2,3.36,3.36,0,0,1,.67-2,4.12,4.12,0,0,1,1.92-1.36,8.08,8.08,0,0,1,3-.49,7.73,7.73,0,0,1,2.34.32,4.89,4.89,0,0,1,1.65.85,3.51,3.51,0,0,1,1,1.1,2.47,2.47,0,0,1,.3,1.13,1.26,1.26,0,0,1-.39.91,1.23,1.23,0,0,1-.93.4,1.19,1.19,0,0,1-.79-.24,3.69,3.69,0,0,1-.57-.79,3.62,3.62,0,0,0-1-1.23,3,3,0,0,0-1.81-.45,3.28,3.28,0,0,0-1.88.49,1.37,1.37,0,0,0-.7,1.15,1.1,1.1,0,0,0,.24.72,1.9,1.9,0,0,0,.67.52,4.19,4.19,0,0,0,.85.34c.29.09.76.21,1.43.36.83.19,1.58.39,2.25.61a6.77,6.77,0,0,1,1.72.81,3.23,3.23,0,0,1,1.11,1.21,3.65,3.65,0,0,1,.4,1.77Z" transform="translate(0.01 0)"/><path id="path903" d="M184.69,245.07l-.7-1.74h-6l-.71,1.78a6.25,6.25,0,0,1-.7,1.42,1.18,1.18,0,0,1-1,.36,1.39,1.39,0,0,1-1-.39,1.18,1.18,0,0,1-.44-.89,1.91,1.91,0,0,1,.1-.58c.07-.21.18-.49.34-.85l3.77-9,.38-.93a5.27,5.27,0,0,1,.48-.91,2,2,0,0,1,.68-.58,2.42,2.42,0,0,1,2.07,0,1.68,1.68,0,0,1,.67.57,3.59,3.59,0,0,1,.44.76c.12.26.27.62.45,1.07l3.85,9a4.41,4.41,0,0,1,.45,1.5,1.23,1.23,0,0,1-.43.89,1.44,1.44,0,0,1-1,.4,1.25,1.25,0,0,1-.6-.13,1.07,1.07,0,0,1-.42-.31,2.82,2.82,0,0,1-.37-.63l-.34-.75Zm-5.91-3.86h4.4L181,235.46Z" transform="translate(0.01 0)"/><path id="path905" d="M194.71,240.7h-1v4.47a1.76,1.76,0,0,1-.42,1.3,1.6,1.6,0,0,1-2.18,0,1.89,1.89,0,0,1-.39-1.28V234.46a1.72,1.72,0,0,1,.43-1.32,2,2,0,0,1,1.4-.41h4.86a16.5,16.5,0,0,1,1.72.08,4.16,4.16,0,0,1,1.29.33,3.74,3.74,0,0,1,1.22.78,3.49,3.49,0,0,1,.81,1.2,3.77,3.77,0,0,1,.28,1.44,3.36,3.36,0,0,1-.94,2.48,5.32,5.32,0,0,1-2.81,1.32,5.46,5.46,0,0,1,1.52,1.18,10.8,10.8,0,0,1,1.28,1.66,10.28,10.28,0,0,1,.89,1.59,3.16,3.16,0,0,1,.32,1,1,1,0,0,1-.19.55,1.36,1.36,0,0,1-.5.42,1.78,1.78,0,0,1-.75.16,1.46,1.46,0,0,1-.84-.23,2.29,2.29,0,0,1-.6-.56c-.16-.23-.38-.56-.66-1l-1.2-1.88a10.37,10.37,0,0,0-1.15-1.57,2.84,2.84,0,0,0-1-.75,4,4,0,0,0-1.32-.19Zm1.71-5.85h-2.75v3.82h2.67a7.57,7.57,0,0,0,1.84-.13,2.09,2.09,0,0,0,1.12-.6,1.69,1.69,0,0,0,.39-1.16,1.63,1.63,0,0,0-.31-1,2,2,0,0,0-.86-.67,6.87,6.87,0,0,0-2.07-.2Z" transform="translate(0.01 0)"/><g id="g1839"><g id="g1825"><g id="g1801"><path id="path1651" class="cls-2" d="M189.7,180.6c14.35-4.92,25.8-13.07,30.54-28.66-4.25-5.19-7.66-10.68-2.41-16.48s19.58,4.56,29.73-2c9.69-8.12,6.65-14.52,9.38-21.69,19.61,29.31-19,43.93-19,43.93s19.11-9.34,22.5-18.62c4.89,17.4-12.29,34.84-27.06,36.29,10.37-1.63,15.32-6,20.09-9.37,2.29,19.46-26.09,24.65-26.25,23.84,6.17-.37,13.3-3,18.75-5.89-4.48,18.52-28.39,19-28.39,19,6.38-.47,12.77-1,19.15-5.35-4.31,15.61-15.81,17.18-27.45,18.48" transform="translate(0.01 0)"/><path id="path1651-0" class="cls-2" d="M95.11,180.6c-14.35-4.92-25.79-13.07-30.54-28.66,4.26-5.19,7.66-10.68,2.42-16.48s-19.58,4.56-29.74-2c-9.69-8.12-6.65-14.52-9.37-21.69-19.61,29.31,19,43.93,19,43.93s-19.12-9.34-22.5-18.62c-4.9,17.4,12.28,34.84,27.05,36.29-10.36-1.63-15.31-6-20.09-9.37-2.28,19.46,26.09,24.65,26.25,23.84-6.16-.37-13.3-3-18.75-5.89,4.48,18.52,28.39,19,28.39,19-6.38-.47-12.76-1-19.15-5.35,4.31,15.61,15.81,17.18,27.46,18.48" transform="translate(0.01 0)"/><path id="path1575" class="cls-2" d="M74.94,221.74l11.93-37.32c16.34-8,34.68-9.16,56.06,0,17.89-5.71,35.82-11.08,55.69,0l12.69,37.32c-28.26-15.3-50.21-13-68.38,0C114.31,203.35,94.71,212.54,74.94,221.74Z" transform="translate(0.01 0)"/></g><g id="g1796"><path id="path1719" class="cls-3" d="M87.44,130.54c0,34.58,24.89,62.6,55.59,62.6s55.59-28,55.59-62.6M96.85,95.7a66.91,66.91,0,0,0-9.41,34.84H198.62a68,68,0,0,0-9.4-34.84C179.22,79,162.28,68,143,68s-36.2,11-46.18,27.74" transform="translate(0.01 0)"/><path id="path1724" class="cls-4" d="M96.85,95.7c28.86,15.94,59.58,18.32,92.37,0" transform="translate(0.01 0)"/><path id="path1724-4" class="cls-4" d="M96.85,165.15c28.86-15.94,59.58-18.32,92.37,0" transform="translate(0.01 0)"/><path id="path1759" class="cls-5" d="M143,68V193.15" transform="translate(0.01 0)"/><ellipse id="path1789" class="cls-6" cx="142.3" cy="130.92" rx="29.08" ry="61.88"/></g></g><path id="path1579" class="cls-5" d="M142.93,221.74l-.38-15.15" transform="translate(0.01 0)"/></g><path id="path1964" class="cls-7" d="M125.79,90.29H159l-.1,37.41h-7.58l10.8,9.66-16.67,68H140l-17.33-68,9.85-9.1-6.72.1Z" transform="translate(0.01 0)"/><path id="path1986" class="cls-8" d="M143.82,159.79v43.8L160,137.69l-9.78-8.44v-4.71h5.22v-31H129.09v31h5.36v4.68l-9.51,8.44,16.2,65.9v-43.8c-7.07-1.32-8.48-12.42,1.34-13.93C152.4,147.18,150.77,158.38,143.82,159.79Z" transform="translate(0.01 0)"/></g></svg>